<?xml version="1.0" encoding="UTF-8" standalone="no"?>
<svg
   xmlns:dc="http://purl.org/dc/elements/1.1/"
   xmlns:cc="http://creativecommons.org/ns#"
   xmlns:rdf="http://www.w3.org/1999/02/22-rdf-syntax-ns#"
   xmlns:svg="http://www.w3.org/2000/svg"
   xmlns="http://www.w3.org/2000/svg"
   viewBox="0 0 250 50"
   height="50"
   width="250"
   id="svg2"
   version="1.1">
  <metadata
     id="metadata8">
    <rdf:RDF>
      <cc:Work
         rdf:about="">
        <dc:format>image/svg+xml</dc:format>
        <dc:type
           rdf:resource="http://purl.org/dc/dcmitype/StillImage" />
        <dc:title></dc:title>
      </cc:Work>
    </rdf:RDF>
  </metadata>
  <defs
     id="defs6" />
  <g
     style="fill:none;fill-opacity:1;stroke:#130ed2;stroke-opacity:1"
     transform="translate(-0.90192191,-1.8038435)"
     id="g816">
    <path
       id="path826"
       d="M 21.541813,45.490679 C 4.0902102,40.967815 2.743146,40.586931 2.7842693,40.186985 2.8372878,39.671352 12.037723,3.8300385 12.257412,3.2833084 12.372043,2.9980302 13.863331,5.3656209 18.24493,12.789185 l 5.834866,9.885774 -0.743799,2.876244 c -0.409091,1.581933 -0.743801,2.990288 -0.743801,3.12968 0,0.151094 1.157939,0.537786 2.867502,0.957592 1.577127,0.387285 2.989375,0.798757 3.138327,0.914379 0.148955,0.115624 2.749024,4.417009 5.777932,9.558632 3.028909,5.141623 5.645248,9.561108 5.814087,9.821078 0.168838,0.25997 0.272473,0.463278 0.230298,0.451793 -0.04218,-0.01148 -8.537512,-2.213638 -18.878529,-4.893678 z m 14.891684,-6.377057 -5.798326,-9.821078 0.799812,-3.039064 c 0.439896,-1.671484 0.767857,-3.07102 0.728797,-3.110078 -0.03906,-0.03906 -1.428732,-0.422386 -3.088167,-0.851841 l -3.017155,-0.78083 -5.823783,-9.85744 C 17.031594,6.2316987 14.434527,1.7722139 14.463416,1.743325 c 0.07806,-0.078058 37.363197,9.551429 37.495612,9.683846 0.129376,0.129376 -9.458033,37.505553 -9.620904,37.506748 -0.05846,4.2e-4 -2.715547,-4.418704 -5.904627,-9.820297 z M 152.27333,32.511807 c -1.16728,-1.167271 -1.33561,-1.268498 -1.67852,-1.009369 -0.36516,0.275948 -0.36561,0.271093 -0.0107,-0.11591 0.36148,-0.394185 0.40449,-0.36985 1.78371,1.00937 0.77731,0.77731 1.36595,1.413292 1.30809,1.413292 -0.0579,0 -0.68901,-0.583822 -1.40257,-1.297383 z m -10.59454,-0.750864 c -0.26131,-0.333194 -0.25388,-0.340624 0.0793,-0.07932 0.34994,0.274438 0.46122,0.44695 0.28832,0.44695 -0.0436,0 -0.20906,-0.165435 -0.36763,-0.367634 z m 9.06009,-8.32482 c 0,-0.04362 0.16543,-0.209058 0.36763,-0.367634 0.33319,-0.261308 0.34062,-0.253878 0.0793,0.07932 -0.27444,0.349935 -0.44695,0.461219 -0.44695,0.288318 z m -8.92826,-0.76099 c 0.20913,-0.231084 0.42751,-0.420153 0.48528,-0.420153 0.0578,0 -0.0661,0.189069 -0.2752,0.420153 -0.20913,0.231084 -0.4275,0.420153 -0.48527,0.420153 -0.0578,0 0.0661,-0.189069 0.27519,-0.420153 z m 65.01869,-2.625957 c 0.27136,-0.288855 0.54066,-0.525191 0.59843,-0.525191 0.0578,0 -0.11699,0.236336 -0.38836,0.525191 -0.27136,0.288856 -0.54065,0.525192 -0.59843,0.525192 -0.0578,0 0.11699,-0.236336 0.38836,-0.525192 z m -68.69503,0.2358 c 0,-0.04362 0.16544,-0.209059 0.36764,-0.367634 0.33319,-0.261308 0.34062,-0.253878 0.0793,0.07931 -0.27443,0.349935 -0.44695,0.461219 -0.44695,0.288319 z m 83.58366,-0.288319 c -0.2613,-0.333193 -0.25388,-0.340623 0.0793,-0.07931 0.34993,0.274437 0.46122,0.446949 0.28831,0.446949 -0.0436,0 -0.20905,-0.165435 -0.36763,-0.367634 z M 90.551952,19.734062 c 0.209129,-0.231085 0.427501,-0.420154 0.485272,-0.420154 0.05777,0 -0.06607,0.189069 -0.275196,0.420154 -0.209129,0.231084 -0.427501,0.420153 -0.485272,0.420153 -0.05777,0 0.06607,-0.189069 0.275196,-0.420153 z m 12.052598,-0.367634 c -0.2613,-0.333194 -0.25387,-0.340624 0.0793,-0.07932 0.2022,0.158575 0.36763,0.32401 0.36763,0.367634 0,0.1729 -0.17251,0.06162 -0.44695,-0.288318 z"
       style="fill:none;fill-opacity:1;stroke:#130ed2;stroke-width:0.21007653;stroke-opacity:1" />
    <path
       id="path824"
       d="m 96.69669,37.451438 c 0.144428,-0.05828 0.380764,-0.05828 0.525191,0 0.144428,0.05828 0.02626,0.10596 -0.262595,0.10596 -0.288856,0 -0.407024,-0.04768 -0.262596,-0.10596 z m 23.52857,0 c 0.14443,-0.05828 0.38076,-0.05828 0.52519,0 0.14443,0.05828 0.0263,0.10596 -0.26259,0.10596 -0.28886,0 -0.40703,-0.04768 -0.2626,-0.10596 z m 24.89407,-0.01134 c 0.31774,-0.04814 0.83768,-0.04814 1.15542,0 0.31774,0.04813 0.0578,0.08752 -0.57771,0.08752 -0.63548,0 -0.89545,-0.03938 -0.57771,-0.08752 z m 17.96154,0.01134 c 0.14443,-0.05828 0.38077,-0.05828 0.52519,0 0.14443,0.05828 0.0263,0.10596 -0.26259,0.10596 -0.28886,0 -0.40703,-0.04768 -0.2626,-0.10596 z m 50.73636,-0.01162 c 0.31934,-0.04829 0.79201,-0.047 1.05038,0.0029 0.2584,0.04986 -0.003,0.08937 -0.58059,0.08779 -0.57771,-0.0017 -0.78911,-0.04238 -0.46979,-0.09066 z m -139.133671,-0.425876 9.655972,-0.05779 0.07214,-1.994122 0.07214,-1.994122 -0.01204,2.048735 -0.01204,2.048734 -9.716071,0.0032 -9.716073,0.0032 9.65597,-0.05779 z m 30.108751,0.0011 c 0.66858,-0.04182 1.70846,-0.04143 2.31084,8.4e-4 0.60238,0.04229 0.0554,0.0765 -1.21561,0.07603 -1.27097,-4.21e-4 -1.76382,-0.03507 -1.09523,-0.07689 z m 23.93896,0.0025 2.25623,-0.07132 0.0578,-9.708954 0.0578,-9.708954 -0.003,9.768559 -0.003,9.768559 -2.31085,0.01172 -2.31084,0.01172 2.25623,-0.07133 z m 42.12243,-0.0019 c 0.6066,-0.04244 1.59921,-0.04244 2.20581,0 0.60659,0.04243 0.11029,0.07716 -1.1029,0.07716 -1.2132,0 -1.7095,-0.03472 -1.10291,-0.07716 z m 24.90174,-6.3e-4 c 0.66859,-0.04182 1.70847,-0.04143 2.31084,8.4e-4 0.60238,0.04229 0.0554,0.0765 -1.21561,0.07603 -1.27096,-4.2e-4 -1.76381,-0.03507 -1.09523,-0.07689 z m 35.70208,0.0026 2.25507,-0.07131 0.0609,-5.927587 0.0609,-5.927589 -0.005,5.987181 -0.005,5.987182 -2.31085,0.01172 -2.31084,0.01172 2.25507,-0.07131 z m 13.02502,-4e-6 2.25534,-0.07132 0.0601,-6.505363 0.0601,-6.505362 -0.005,6.564959 -0.005,6.564959 -2.31084,0.01172 -2.31084,0.01172 2.25534,-0.07132 z M 184.65179,26.351473 c 1.4e-4,-2.773011 0.03,-3.878368 0.0664,-2.456352 0.0364,1.422017 0.0363,3.690843 -2.1e-4,5.041837 -0.0365,1.350994 -0.0663,0.187525 -0.0662,-2.585485 z m -71.21346,-2.520919 c -9e-5,-3.466263 0.0287,-4.913756 0.064,-3.216652 0.0353,1.697105 0.0353,4.533139 1.7e-4,6.302296 -0.0352,1.76916 -0.064,0.380619 -0.0641,-3.085644 z m 111.29622,3.466263 c 0,-0.404397 0.0432,-0.569833 0.0961,-0.367634 0.0528,0.202199 0.0528,0.533069 0,0.735268 -0.0528,0.202199 -0.0961,0.03676 -0.0961,-0.367634 z M 92.354188,27.174273 c 0.01008,-0.244729 0.05986,-0.294506 0.126919,-0.126922 0.06069,0.151648 0.05322,0.332839 -0.01657,0.402648 -0.06981,0.06981 -0.119458,-0.05427 -0.110336,-0.275726 z m -9.846982,-3.078088 -0.0432,-2.04521 -6.459853,-0.0587 -6.459853,-0.05871 6.466445,-0.04937 c 5.21945,-0.03985 6.487111,0.0045 6.573595,0.229851 0.05893,0.153572 0.0754,1.12255 0.03661,2.153285 l -0.07054,1.874063 z m 87.155144,1.397476 c 0.0101,-0.244729 0.0599,-0.294507 0.12692,-0.126922 0.0607,0.151648 0.0532,0.332839 -0.0166,0.402647 -0.0698,0.06981 -0.11945,-0.05427 -0.11033,-0.275725 z M 163.094,25.052546 c 0.15165,-0.06068 0.33284,-0.05322 0.40265,0.01657 0.0698,0.06981 -0.0543,0.119458 -0.27573,0.110337 -0.24473,-0.01008 -0.2945,-0.05986 -0.12692,-0.12692 z m 2.731,0 c 0.15164,-0.06068 0.33284,-0.05322 0.40264,0.01657 0.0698,0.06981 -0.0543,0.119458 -0.27572,0.110337 -0.24473,-0.01008 -0.29451,-0.05986 -0.12692,-0.12692 z m 24.06384,-5.528561 c 0,-1.09765 0.0354,-1.546689 0.0787,-0.997864 0.0433,0.548825 0.0433,1.446903 0,1.995728 -0.0433,0.548825 -0.0787,0.09979 -0.0787,-0.997864 z m 43.89751,-0.63023 c 0,-0.751023 0.0381,-1.05826 0.0847,-0.682748 0.0466,0.375511 0.0466,0.989985 0,1.365497 -0.0466,0.375512 -0.0847,0.06827 -0.0847,-0.682749 z m -49.14353,-4.096492 c 4.2e-4,-1.502047 0.0338,-2.088956 0.0744,-1.304242 0.0405,0.784715 0.0402,2.013662 -6.3e-4,2.730995 -0.0409,0.717333 -0.0741,0.07529 -0.0737,-1.426753 z m -88.156207,2.267622 c 0.25997,-0.05007 0.685375,-0.05007 0.945345,0 0.259969,0.05007 0.04727,0.09104 -0.472672,0.09104 -0.51994,0 -0.732642,-0.04097 -0.472673,-0.09104 z m 48.845677,-0.0025 c 0.31933,-0.04829 0.79201,-0.047 1.05039,0.0029 0.25838,0.04986 -0.003,0.08937 -0.5806,0.08779 -0.57771,-0.0016 -0.78911,-0.04237 -0.46979,-0.09066 z m 68.48494,0 c 0.31934,-0.04829 0.79201,-0.047 1.05038,0.0029 0.2584,0.04986 -0.003,0.08937 -0.58059,0.08779 -0.57771,-0.0016 -0.78911,-0.04237 -0.46979,-0.09066 z m 25.52142,0.0025 c 0.25997,-0.05007 0.68538,-0.05007 0.94534,0 0.25997,0.05007 0.0473,0.09104 -0.47267,0.09104 -0.51994,0 -0.73264,-0.04097 -0.47267,-0.09104 z M 84.221344,13.116651 c 6.3e-4,-1.155421 0.03582,-1.601291 0.07839,-0.990822 0.04257,0.610469 0.04212,1.555814 -0.0011,2.100766 -0.04306,0.544951 -0.07789,0.04548 -0.07734,-1.109944 z M 199.34427,12.381383 c 0,-1.213192 0.0347,-1.709498 0.0772,-1.102902 0.0424,0.606596 0.0424,1.599207 0,2.205803 -0.0424,0.606596 -0.0772,0.110291 -0.0772,-1.102901 z"
       style="fill:none;fill-opacity:1;stroke:#130ed2;stroke-width:0.21007653;stroke-opacity:1" />
    <path
       id="path822"
       d="m 138.32846,34.491938 -0.50929,-0.57771 0.57771,0.509291 c 0.31774,0.280112 0.57771,0.540081 0.57771,0.57771 0,0.164759 -0.17012,0.03067 -0.64613,-0.509291 z m 23.09752,-1.470535 c -0.26131,-0.333194 -0.25388,-0.340625 0.0793,-0.07932 0.34993,0.274438 0.46122,0.446951 0.28832,0.446951 -0.0436,0 -0.20906,-0.165436 -0.36764,-0.367634 z m -3.75458,-5.593826 c 0,-0.04362 0.16544,-0.209058 0.36764,-0.367634 0.33319,-0.261308 0.34062,-0.253877 0.0793,0.07932 -0.27444,0.349935 -0.44695,0.461218 -0.44695,0.288317 z m -7.37947,-4.279772 c -0.26131,-0.333194 -0.25388,-0.340624 0.0793,-0.07932 0.34994,0.274438 0.46122,0.44695 0.28832,0.44695 -0.0436,0 -0.20906,-0.165435 -0.36763,-0.367634 z m 68.06478,-0.420153 c -0.26129,-0.333194 -0.25388,-0.340624 0.0793,-0.07932 0.34992,0.274437 0.46122,0.44695 0.28831,0.44695 -0.0436,0 -0.20905,-0.165435 -0.36764,-0.367634 z m -65.33379,-2.730995 c -0.26131,-0.333193 -0.25388,-0.340623 0.0793,-0.07931 0.34993,0.274437 0.46122,0.446949 0.28831,0.446949 -0.0436,0 -0.20905,-0.165435 -0.36763,-0.367634 z"
       style="fill:none;fill-opacity:1;stroke:#130ed2;stroke-width:0.21007653;stroke-opacity:1" />
    <path
       id="path820"
       d="m 169.71086,35.804917 c 0.001,-0.693253 0.0404,-0.951529 0.0872,-0.573948 0.0468,0.377581 0.0458,0.944788 -0.002,1.260459 -0.0479,0.315672 -0.0862,0.0067 -0.085,-0.686511 z m 29.39594,-8.448474 -0.0503,-9.708932 -2.25833,-0.06753 -2.25832,-0.06753 2.26492,-0.04462 c 1.6523,-0.03255 2.29215,0.02641 2.3656,0.217979 0.0554,0.144428 0.0751,4.563913 0.0437,9.821079 l -0.057,9.558482 z m -83.68758,8.185878 c -0.26131,-0.333194 -0.25388,-0.340624 0.0793,-0.07932 0.34993,0.274437 0.46122,0.44695 0.28832,0.44695 -0.0436,0 -0.20906,-0.165435 -0.36764,-0.367634 z m 42.54734,-0.105038 -0.4002,-0.472672 0.47268,0.400193 c 0.25996,0.220106 0.47267,0.432808 0.47267,0.472673 0,0.168113 -0.16907,0.044 -0.54515,-0.400194 z m -32.85702,0.183279 c 0,-0.04362 0.16544,-0.209058 0.36763,-0.367634 0.3332,-0.261308 0.34063,-0.253877 0.0793,0.07932 -0.27444,0.349935 -0.44695,0.461218 -0.44695,0.288317 z m 27.83514,-1.181143 c 0.20913,-0.231084 0.4275,-0.420153 0.48527,-0.420153 0.0578,0 -0.0661,0.189069 -0.27519,0.420153 -0.20913,0.231085 -0.42751,0.420153 -0.48528,0.420153 -0.0578,0 0.0661,-0.189068 0.2752,-0.420153 z m 53.85783,0.05252 c -0.26131,-0.333194 -0.25388,-0.340624 0.0793,-0.07932 0.34993,0.274438 0.46122,0.44695 0.28831,0.44695 -0.0436,0 -0.20905,-0.165435 -0.36763,-0.367634 z M 69.52522,29.502621 c -2.1e-4,-1.964216 0.03133,-2.796035 0.07017,-1.848485 0.03883,0.947548 0.03903,2.554634 4.2e-4,3.571301 -0.03859,1.016666 -0.07037,0.241399 -0.07061,-1.722816 z m 22.828968,-1.488042 c 0.01008,-0.244728 0.05986,-0.294506 0.126919,-0.126922 0.06069,0.151648 0.05322,0.332839 -0.01657,0.402648 -0.06981,0.06981 -0.119458,-0.05427 -0.110336,-0.275726 z M 203.94832,27.401855 c 0.002,-0.57771 0.0424,-0.789112 0.0907,-0.469783 0.0483,0.319329 0.047,0.792001 -0.003,1.050382 -0.0499,0.258382 -0.0894,-0.0029 -0.0878,-0.580599 z m 4.4045,-0.210076 c 0.002,-0.462169 0.0453,-0.626501 0.0956,-0.365185 0.0503,0.261317 0.0483,0.639454 -0.004,0.840306 -0.0526,0.200853 -0.0937,-0.01296 -0.0914,-0.475121 z M 92.354188,26.544043 c 0.01008,-0.244728 0.05986,-0.294506 0.126919,-0.126922 0.06069,0.151648 0.05322,0.332839 -0.01657,0.402648 -0.06981,0.06981 -0.119458,-0.05427 -0.110336,-0.275726 z M 164.0291,25.045305 c 0.31933,-0.04829 0.79201,-0.047 1.05039,0.0029 0.25838,0.04986 -0.003,0.08937 -0.5806,0.08779 -0.57771,-0.0017 -0.78911,-0.04238 -0.46979,-0.09066 z m 46.05639,-2.370172 c 0.20914,-0.231084 0.42751,-0.420153 0.48528,-0.420153 0.0578,0 -0.0661,0.189069 -0.2752,0.420153 -0.20913,0.231084 -0.4275,0.420153 -0.48528,0.420153 -0.0578,0 0.0661,-0.189069 0.2752,-0.420153 z M 101.76425,22.517576 c -0.26131,-0.333194 -0.25388,-0.340625 0.0793,-0.07932 0.34994,0.274438 0.46122,0.446951 0.28832,0.446951 -0.0436,0 -0.20906,-0.165436 -0.36763,-0.367634 z m 133.00524,0.07824 c 0,-0.04362 0.16543,-0.209058 0.36763,-0.367634 0.3332,-0.261308 0.34062,-0.253878 0.0793,0.07932 -0.27444,0.349935 -0.44695,0.461219 -0.44695,0.288318 z m -165.23346,-4.069471 0.0083,-3.30893 7.300214,-0.0041 7.300216,-0.0041 -7.242376,0.05938 -7.242375,0.05938 -0.06611,3.253695 -0.06611,3.253696 0.0083,-3.308931 z m 82.9885,2.888328 c 0.20913,-0.231084 0.4275,-0.420153 0.48527,-0.420153 0.0578,0 -0.0661,0.189069 -0.2752,0.420153 -0.20913,0.231084 -0.4275,0.420153 -0.48527,0.420153 -0.0578,0 0.0661,-0.189069 0.2752,-0.420153 z m 25.19736,-1.995727 0.0118,-1.890689 1.20899,-0.01727 1.20899,-0.01727 -1.14872,0.08004 -1.14873,0.08004 -0.0721,1.827918 -0.0721,1.827917 0.0118,-1.890689 z m -12.94728,1.642145 c 0.15165,-0.06068 0.33284,-0.05322 0.40265,0.01658 0.0698,0.06981 -0.0543,0.119458 -0.27572,0.110336 -0.24473,-0.01008 -0.29451,-0.05986 -0.12693,-0.126919 z m 70.09991,-1.95726 c 0.20914,-0.231084 0.42751,-0.420153 0.48528,-0.420153 0.0578,0 -0.0661,0.189069 -0.2752,0.420153 -0.20913,0.231084 -0.4275,0.420153 -0.48528,0.420153 -0.0578,0 0.0661,-0.189069 0.2752,-0.420153 z M 114.6659,17.477823 c 0.66859,-0.04182 1.70847,-0.04143 2.31084,8.61e-4 0.60238,0.04229 0.0554,0.0765 -1.21561,0.07603 -1.27096,-4.83e-4 -1.76381,-0.03507 -1.09523,-0.07689 z m 13.02475,0 c 0.66858,-0.04182 1.70846,-0.04143 2.31084,8.61e-4 0.60238,0.04229 0.0554,0.0765 -1.21561,0.07603 -1.27096,-4.83e-4 -1.76382,-0.03507 -1.09523,-0.07689 z m 58.28856,-6.7e-5 c 0.72214,-0.04102 1.90382,-0.04102 2.62596,0 0.72214,0.04102 0.1313,0.07458 -1.31298,0.07458 -1.44427,0 -2.03511,-0.03356 -1.31298,-0.07458 z m 44.43886,6.7e-5 c 0.66859,-0.04182 1.70846,-0.04143 2.31084,8.61e-4 0.60237,0.04229 0.0553,0.0765 -1.21561,0.07603 -1.27096,-4.83e-4 -1.76382,-0.03507 -1.09523,-0.07689 z m -66.18178,-0.199415 c 0.2022,-0.05284 0.53307,-0.05284 0.73527,0 0.2022,0.05284 0.0368,0.09607 -0.36763,0.09607 -0.4044,0 -0.56984,-0.04323 -0.36764,-0.09607 z m 1.68461,-7.77e-4 c 0.2044,-0.05326 0.488,-0.04976 0.63023,0.0078 0.14223,0.05755 -0.025,0.101125 -0.37163,0.09684 -0.34663,-0.0043 -0.463,-0.05136 -0.2586,-0.104627 z m 28.59161,-4.896248 c 0,-1.213192 0.0347,-1.709498 0.0772,-1.102902 0.0424,0.606596 0.0424,1.599207 0,2.205803 -0.0424,0.606596 -0.0772,0.110291 -0.0772,-1.102901 z"
       style="fill:none;fill-opacity:1;stroke:#130ed2;stroke-width:0.21007653;stroke-opacity:1" />
    <path
       id="path818"
       d="m 94.353725,36.961836 c -1.504028,-0.48037 -3.184785,-1.604046 -4.096813,-2.738945 -1.631421,-2.030085 -2.512984,-5.209173 -2.232849,-8.052093 0.392244,-3.980669 2.153948,-6.684723 5.338002,-8.193353 1.284837,-0.608765 1.560377,-0.659264 3.597221,-0.659264 1.942928,0 2.346149,0.06581 3.383454,0.552221 0.6477,0.30372 1.63359,0.989095 2.19087,1.523054 0.55727,0.53396 1.04357,0.970835 1.08067,0.970835 0.0371,0 0.0675,-2.316094 0.0675,-5.146875 v -5.146875 h 2.20581 2.2058 v 13.444898 13.444899 h -2.2058 -2.20581 V 35.34695 33.733562 l -0.75407,0.880969 c -2.11444,2.470246 -5.385296,3.365716 -8.573935,2.347305 z m 6.104935,-3.956258 c 1.13595,-0.579518 2.48018,-2.1328 2.89218,-3.341957 0.45336,-1.330541 0.42571,-3.583286 -0.0597,-4.860671 -0.59144,-1.55652 -1.3957,-2.462988 -2.81424,-3.171838 -4.736026,-2.366621 -9.391429,2.308459 -7.73365,7.766338 0.825435,2.717565 2.936384,4.274341 5.587661,4.120773 0.739245,-0.04282 1.625163,-0.25627 2.127699,-0.512645 z m 18.03347,4.191449 c -1.24331,-0.324396 -2.22812,-0.935042 -3.1354,-1.944156 -1.63421,-1.817643 -1.66929,-2.024179 -1.75276,-10.319415 l -0.0735,-7.30016 h 2.21821 2.21821 l 10e-4,6.039701 c 6.3e-4,3.50628 0.0922,6.367409 0.21815,6.820964 1.09442,3.940652 7.03759,3.740325 8.18947,-0.276044 0.1123,-0.391888 0.20426,-3.383745 0.20426,-6.648572 v -5.936049 h 2.2058 2.2058 v 9.663521 9.663521 h -2.2058 -2.2058 v -1.410841 -1.41084 l -1.10291,1.07422 c -1.59327,1.551838 -2.63489,2.017434 -4.6742,2.089333 -0.92434,0.03259 -1.96421,-0.01475 -2.31084,-0.105183 z m 24.62065,-0.04668 c -4.21939,-0.992967 -7.49941,-5.225505 -7.49941,-9.67725 0,-5.859135 4.36768,-10.259953 10.1827,-10.259953 2.87006,0 5.42655,0.952263 7.03507,2.620485 l 0.61295,0.635701 -1.30889,1.447877 -1.3089,1.447875 -1.14661,-0.869532 c -1.51846,-1.15152 -2.85241,-1.585672 -4.43196,-1.442444 -4.96295,0.450024 -7.03572,7.181754 -3.3471,10.870373 2.17413,2.17413 5.2529,2.244833 7.97596,0.183165 l 1.13343,-0.858141 1.27641,1.276406 1.2764,1.276406 -0.83427,0.861492 c -1.7672,1.824879 -4.11603,2.730006 -6.99772,2.696583 -1.0007,-0.01162 -2.17882,-0.105675 -2.61806,-0.209043 z m 18.07414,0.0015 c -3.01888,-0.711241 -5.03945,-3.483892 -4.69217,-6.438671 0.3244,-2.760188 1.8804,-4.437575 4.85299,-5.231627 1.16865,-0.312173 5.00108,-0.36564 6.3023,-0.08793 0.46216,0.09864 1.16242,0.251117 1.55611,0.338837 l 0.71581,0.159494 -0.13712,-1.000389 c -0.2166,-1.580265 -0.88665,-2.560383 -2.18447,-3.195348 -1.54559,-0.756189 -4.05696,-0.750236 -6.46775,0.01534 -0.9175,0.291359 -1.72835,0.461905 -1.80189,0.378992 -0.17186,-0.193646 -1.0291,-2.77993 -1.0291,-3.104679 0,-0.418544 3.31281,-1.375276 5.31638,-1.535358 5.38658,-0.430381 8.46229,0.948256 9.87255,4.425209 0.4253,1.048576 0.45636,1.528097 0.52452,8.099606 l 0.0725,6.985045 h -2.11585 -2.11585 v -1.155203 -1.1552 l -1.23536,0.95934 c -2.0031,1.555553 -4.86122,2.148679 -7.43356,1.542642 z m 5.38882,-3.219879 c 2.09398,-0.630196 3.2801,-2.14302 3.2801,-4.183569 V 28.61191 l -0.99786,-0.289897 c -0.57977,-0.168433 -1.96609,-0.289897 -3.30871,-0.289897 -2.61387,0 -3.39115,0.286084 -4.25333,1.56548 -0.7633,1.132648 -0.54413,2.948201 0.45611,3.778323 0.98514,0.817593 3.13224,1.065099 4.82369,0.556049 z m 17.54779,3.266308 c -2.10747,-0.449019 -3.39462,-1.861868 -3.76679,-4.134644 -0.1126,-0.687577 -0.20526,-3.589866 -0.20593,-6.449533 l -0.001,-5.199394 h -1.15542 -1.15542 v -1.890689 -1.890689 h 1.15542 1.15542 v -2.730995 -2.730995 h 2.19953 2.19952 l 0.0588,2.678476 0.0588,2.678476 2.57344,0.05898 2.57344,0.05898 v 1.884223 1.884223 h -2.62596 -2.62595 v 5.062607 c 0,5.514555 0.11922,6.19133 1.17543,6.672571 0.72338,0.329595 2.172,0.299533 3.20976,-0.06661 l 0.86672,-0.305796 v 1.788144 1.788144 l -0.92536,0.40933 c -1.0262,0.45394 -3.58093,0.687297 -4.76422,0.435182 z m 27.3037,-0.122548 c -1.60708,-0.443154 -2.93475,-1.206719 -4.2846,-2.464164 -2.28578,-2.1293 -3.14872,-4.381384 -2.99437,-7.814606 0.11571,-2.573765 0.61168,-3.975192 2.02979,-5.735474 1.92726,-2.392275 4.34375,-3.618159 7.47875,-3.793961 3.362,-0.188533 5.97638,0.740426 8.08882,2.87418 1.94674,1.966399 2.94019,4.384006 2.94019,7.155145 0,4.636448 -3.05426,8.57118 -7.59036,9.778508 -1.37077,0.364842 -4.34574,0.365036 -5.66822,4.2e-4 z m 5.15387,-3.908505 c 1.40409,-0.525341 2.86522,-2.044959 3.35866,-3.493136 0.71943,-2.111391 0.24153,-4.947778 -1.10964,-6.585833 -0.86613,-1.05001 -2.53737,-1.903732 -3.98041,-2.033307 -2.52696,-0.226904 -4.54998,0.897487 -5.7063,3.171559 -0.65908,1.29617 -0.73401,1.615119 -0.72183,3.072621 0.0111,1.327896 0.11898,1.841735 0.58795,2.800276 1.43114,2.92515 4.56218,4.193775 7.57157,3.06782 z M 65.027654,24.040631 V 11.120923 h 9.558482 9.558482 v 1.993005 1.993005 l -7.30016,0.05524 -7.300159,0.05524 v 3.361225 3.361224 l 6.459853,0.05555 6.459853,0.05556 v 1.992691 1.992692 h -6.512372 -6.512372 v 3.466263 3.466263 h 7.457716 7.457717 v 1.995727 1.995727 h -9.66352 -9.66352 z m 129.617216,3.256186 v -9.663521 h 2.2058 2.20581 v 9.663521 9.663521 h -2.20581 -2.2058 z m 34.66263,0 v -9.663521 h 2.2058 2.2058 v 1.389584 1.389584 l 1.36401,-1.275966 c 1.55587,-1.455433 2.73173,-1.923355 4.83325,-1.923355 2.86049,0 4.79214,1.114278 5.98718,3.453735 l 0.73527,1.439376 0.0648,7.427042 0.0648,7.427042 h -2.21805 -2.21807 V 30.69571 24.431085 l -0.57771,-1.140573 c -0.79073,-1.561139 -1.88829,-2.142037 -3.85711,-2.041423 -1.78172,0.09105 -2.86504,0.757669 -3.57517,2.19997 -0.4851,0.985312 -0.49979,1.174891 -0.56214,7.261502 l -0.064,6.249777 h -2.19429 -2.19429 z M 194.64487,12.381383 v -2.100766 h 2.31084 2.31084 v 2.100766 2.100765 h -2.31084 -2.31084 z"
       style="fill:none;fill-opacity:1;stroke:#130ed2;stroke-width:0.21007653;stroke-opacity:1" />
  </g>
</svg>
